<svg width="24" height="24" viewBox="0 0 24 24" fill="none" xmlns="http://www.w3.org/2000/svg">
<path d="M3 16C3 17.103 3.897 18 5 18H7.75757C8.28801 18 8.79671 18.2107 9.17179 18.5858L10.5858 19.9998C11.3668 20.7808 12.6332 20.7808 13.4142 19.9998L14.8282 18.5858C15.2033 18.2107 15.712 18 16.2424 18H19C20.103 18 21 17.103 21 16V4C21 2.897 20.103 2 19 2H5C3.897 2 3 2.897 3 4V16ZM5 6C5 4.89543 5.89543 4 7 4H17C18.1046 4 19 4.89543 19 6V14C19 15.1046 18.1046 16 17 16H15.4144C14.884 16 14.3753 16.2107 14.0002 16.5858L13.4142 17.1718C12.6332 17.9528 11.3668 17.9528 10.5858 17.1718L9.99979 16.5858C9.62471 16.2107 9.11601 16 8.58557 16H7C5.89543 16 5 15.1046 5 14V6Z"/>
<path d="M11 13C11 13.5523 11.4477 14 12 14C12.5523 14 13 13.5523 13 13V12.5C13 11.6716 13.6716 11 14.5 11H15C15.5523 11 16 10.5523 16 10C16 9.44772 15.5523 9 15 9H14.5C13.6716 9 13 8.32843 13 7.5V7C13 6.44772 12.5523 6 12 6C11.4477 6 11 6.44772 11 7V7.5C11 8.32843 10.3284 9 9.5 9H9C8.44772 9 8 9.44772 8 10C8 10.5523 8.44772 11 9 11H9.5C10.3284 11 11 11.6716 11 12.5V13Z"/>
</svg>
