<svg width="24" height="24" viewBox="0 0 24 24" fill="none" xmlns="http://www.w3.org/2000/svg">
<path d="M12.3165 2.07005C12.2174 2.02391 12.1094 2 12 2C11.8907 2 11.7826 2.02391 11.6835 2.07005L0.433516 7.32005C0.30104 7.38189 0.189524 7.48109 0.112683 7.60547C0.0358419 7.72984 -0.00297318 7.87396 0.00101108 8.02011C0.00499534 8.16625 0.0516053 8.30804 0.135109 8.42804C0.218612 8.54805 0.335367 8.64103 0.471016 8.69555L11.721 13.1956C11.9001 13.2673 12.0999 13.2673 12.279 13.1956L21 9.70955V18.4996C20.6022 18.4996 20.2207 18.6576 19.9394 18.9389C19.6581 19.2202 19.5 19.6017 19.5 19.9996V22.9996H24V19.9996C24 19.6017 23.842 19.2202 23.5607 18.9389C23.2794 18.6576 22.8978 18.4996 22.5 18.4996V9.10805L23.529 8.69555C23.6647 8.64103 23.7814 8.54805 23.8649 8.42804C23.9484 8.30804 23.995 8.16625 23.999 8.02011C24.003 7.87396 23.9642 7.72984 23.8874 7.60547C23.8105 7.48109 23.699 7.38189 23.5665 7.32005L12.3165 2.07005ZM12 11.6896L2.63702 7.94705L12 3.57755L21.363 7.94705L12 11.6896Z"/>
<path d="M6.26398 12.5475C6.16741 12.5112 6.06436 12.4951 5.96129 12.5004C5.85823 12.5056 5.75736 12.5321 5.66499 12.5782C5.57263 12.6242 5.49077 12.6888 5.42452 12.7679C5.35827 12.8471 5.30906 12.939 5.27998 13.038L4.52998 15.588C4.47745 15.7671 4.49352 15.9592 4.57507 16.127C4.65661 16.2948 4.79777 16.4262 4.97098 16.4955L11.721 19.1955C11.9001 19.2673 12.0999 19.2673 12.279 19.1955L19.029 16.4955C19.2022 16.4262 19.3434 16.2948 19.4249 16.127C19.5064 15.9592 19.5225 15.7671 19.47 15.588L18.72 13.038C18.6909 12.939 18.6417 12.8471 18.5754 12.7679C18.5092 12.6888 18.4273 12.6242 18.335 12.5782C18.2426 12.5321 18.1417 12.5056 18.0387 12.5004C17.9356 12.4951 17.8326 12.5112 17.736 12.5475L12 14.6985L6.26398 12.5475ZM6.16198 15.357L6.49198 14.235L11.736 16.2015C11.9062 16.2655 12.0938 16.2655 12.264 16.2015L17.508 14.235L17.838 15.357L12 17.6895L6.16198 15.3555V15.357Z"/>
</svg>
