<svg width="24" height="24" viewBox="0 0 24 24" fill="none" xmlns="http://www.w3.org/2000/svg">
<path d="M12.3165 3.07048C12.2174 3.02434 12.1094 3.00043 12 3.00043C11.8907 3.00043 11.7826 3.02434 11.6835 3.07048L0.433516 8.32048C0.30104 8.38231 0.189524 8.48152 0.112683 8.60589C0.0358419 8.73027 -0.00297318 8.87439 0.00101108 9.02053C0.00499534 9.16668 0.0516053 9.30847 0.135109 9.42847C0.218612 9.54847 0.335367 9.64146 0.471016 9.69598L11.721 14.196C11.9001 14.2677 12.0999 14.2677 12.279 14.196L21 10.71V19.5C20.6022 19.5 20.2207 19.658 19.9394 19.9393C19.6581 20.2206 19.5 20.6022 19.5 21V24H24V21C24 20.6022 23.842 20.2206 23.5607 19.9393C23.2794 19.658 22.8978 19.5 22.5 19.5V10.1085L23.529 9.69598C23.6647 9.64146 23.7814 9.54847 23.8649 9.42847C23.9484 9.30847 23.995 9.16668 23.999 9.02053C24.003 8.87439 23.9642 8.73027 23.8874 8.60589C23.8105 8.48152 23.699 8.38231 23.5665 8.32048L12.3165 3.07048Z"/>
<path d="M6.26398 13.548C6.16741 13.5116 6.06436 13.4956 5.96129 13.5009C5.85823 13.5061 5.75736 13.5326 5.66499 13.5786C5.57263 13.6247 5.49077 13.6893 5.42452 13.7684C5.35827 13.8476 5.30906 13.9395 5.27998 14.0385L4.52998 16.5885C4.47745 16.7675 4.49352 16.9597 4.57507 17.1275C4.65661 17.2953 4.79777 17.4267 4.97098 17.496L11.721 20.196C11.9001 20.2678 12.0999 20.2678 12.279 20.196L19.029 17.496C19.2022 17.4267 19.3434 17.2953 19.4249 17.1275C19.5064 16.9597 19.5225 16.7675 19.47 16.5885L18.72 14.0385C18.6909 13.9395 18.6417 13.8476 18.5754 13.7684C18.5092 13.6893 18.4273 13.6247 18.335 13.5786C18.2426 13.5326 18.1417 13.5061 18.0387 13.5009C17.9356 13.4956 17.8326 13.5116 17.736 13.548L12 15.699L6.26398 13.548Z"/>
</svg>
