<svg width="24" height="24" viewBox="0 0 24 24" fill="none" xmlns="http://www.w3.org/2000/svg">
<path d="M15.3303 7.76929C14.8327 7.76929 14.4295 8.13136 14.4295 8.57822L14.4295 10.8239C14.4295 11.9461 13.4126 12.8591 12.1629 12.8591C10.9133 12.8591 9.89637 11.9461 9.89637 10.8239L9.89637 8.57822C9.89637 8.13136 9.4932 7.76929 8.99561 7.76929C8.49802 7.76929 8.09485 8.13136 8.09485 8.57822L8.09485 10.8239C8.09485 12.8383 9.91983 14.477 12.1629 14.477C14.4061 14.477 16.231 12.8383 16.231 10.8239L16.231 8.57822C16.231 8.13136 15.8279 7.76929 15.3303 7.76929Z"/>
<path d="M21.2794 20.1282L19.2858 6.47759C19.1084 5.26484 18.1599 4.38452 17.0304 4.38452H6.96952C5.84005 4.38452 4.89149 5.26484 4.71409 6.47759L2.72051 20.1286C2.61583 20.847 2.80496 21.5765 3.23951 22.1295C3.67406 22.6828 4.30711 23 4.97623 23H19.0237C19.6928 23 20.3259 22.6828 20.7604 22.1295C21.1949 21.5765 21.3841 20.847 21.2794 20.1282ZM19.3905 20.8578C19.3365 20.9266 19.2172 21.0417 19.0237 21.0417H4.97623C4.78271 21.0417 4.66336 20.9266 4.60942 20.8578C4.55546 20.7893 4.46955 20.643 4.49975 20.4355L6.49333 6.78484C6.53087 6.52858 6.73113 6.34277 6.96952 6.34277H17.0304C17.2688 6.34277 17.469 6.52858 17.5066 6.78484L19.5002 20.4352C19.5304 20.643 19.4444 20.7893 19.3905 20.8578Z"/>
</svg>
