<svg width="24" height="24" viewBox="0 0 24 24" fill="none" xmlns="http://www.w3.org/2000/svg">
<path fill-rule="evenodd" clip-rule="evenodd" d="M19.2859 6.47759L21.2795 20.1282C21.3842 20.847 21.1951 21.5765 20.7605 22.1295C20.326 22.6828 19.6929 23 19.0238 23H4.97636C4.30724 23 3.67418 22.6828 3.23963 22.1295C2.80508 21.5765 2.61596 20.847 2.72063 20.1286L4.71422 6.47759C4.89161 5.26484 5.84017 4.38452 6.96964 4.38452H17.0305C18.16 4.38452 19.1085 5.26484 19.2859 6.47759ZM14.4296 8.57822C14.4296 8.13136 14.8328 7.76929 15.3304 7.76929C15.828 7.76929 16.2312 8.13136 16.2312 8.57822V10.8239C16.2312 12.8383 14.4062 14.477 12.1631 14.477C9.91995 14.477 8.09497 12.8383 8.09497 10.8239L8.09497 8.57822C8.09497 8.13136 8.49814 7.76929 8.99573 7.76929C9.49332 7.76929 9.8965 8.13136 9.8965 8.57822L9.8965 10.8239C9.8965 11.9461 10.9134 12.8591 12.1631 12.8591C13.4127 12.8591 14.4296 11.9461 14.4296 10.8239L14.4296 8.57822Z"/>
</svg>
