<svg width="24" height="24" viewBox="0 0 24 24" fill="none" xmlns="http://www.w3.org/2000/svg">
<path d="M8.99541 7.70764C9.493 7.70764 9.89617 7.34557 9.89617 6.89871L9.89617 4.65307C9.89617 3.53078 10.9131 2.61784 12.1627 2.61784C13.4124 2.61784 14.4293 3.53079 14.4293 4.65307L14.4293 6.89871C14.4293 7.34557 14.8325 7.70764 15.3301 7.70764C15.8277 7.70764 16.2308 7.34557 16.2308 6.89871L16.2308 4.65307C16.2308 2.63864 14.4059 0.999966 12.1627 0.999966C9.91963 0.999967 8.09465 2.63864 8.09465 4.65307L8.09465 6.89871C8.09465 7.34557 8.49782 7.70764 8.99541 7.70764Z"/>
<path fill-rule="evenodd" clip-rule="evenodd" d="M19.2858 6.47759L21.2794 20.1282C21.3841 20.847 21.1949 21.5765 20.7604 22.1295C20.3259 22.6828 19.6928 23 19.0237 23H4.97623C4.30711 23 3.67406 22.6828 3.23951 22.1295C2.80496 21.5765 2.61583 20.847 2.72051 20.1286L4.71409 6.47759C4.89149 5.26484 5.84005 4.38452 6.96952 4.38452H17.0304C18.1599 4.38452 19.1084 5.26484 19.2858 6.47759ZM14.3677 16.3325C14.4518 16.403 14.5582 16.4382 14.6872 16.4382C14.8217 16.4382 14.931 16.403 15.015 16.3325C15.1047 16.257 15.1495 16.1639 15.1495 16.0532V11.5384C15.1495 11.4276 15.1103 11.337 15.0318 11.2666C14.9534 11.1911 14.8497 11.1533 14.7208 11.1533C14.6703 11.1533 14.6143 11.1584 14.5526 11.1684C14.4966 11.1785 14.4434 11.1986 14.3929 11.2288L13.1151 11.9914C12.9693 12.0769 12.8965 12.1851 12.8965 12.316C12.8965 12.4217 12.9385 12.5148 13.0226 12.5954C13.1123 12.6708 13.2131 12.7086 13.3252 12.7086C13.4205 12.7086 13.5018 12.6834 13.569 12.6331L14.2416 12.211V16.0532C14.2416 16.1639 14.2836 16.257 14.3677 16.3325ZM8.72452 14.1884C8.80299 14.2538 8.89827 14.2865 9.01036 14.2865H10.263V15.4039C10.263 15.5247 10.305 15.6229 10.3891 15.6984C10.4788 15.7739 10.5881 15.8116 10.717 15.8116C10.8515 15.8116 10.9608 15.7739 11.0448 15.6984C11.1289 15.6229 11.1709 15.5247 11.1709 15.4039V14.2865H12.4488C12.5609 14.2865 12.6534 14.2538 12.7262 14.1884C12.8047 14.1179 12.8439 14.0349 12.8439 13.9392C12.8439 13.8335 12.8047 13.748 12.7262 13.6825C12.6534 13.6171 12.5609 13.5844 12.4488 13.5844H11.1709V12.3764C11.1709 12.2606 11.1289 12.165 11.0448 12.0895C10.9664 12.014 10.8599 11.9763 10.7254 11.9763C10.5965 11.9763 10.4872 12.014 10.3975 12.0895C10.3078 12.165 10.263 12.2606 10.263 12.3764V13.5844H9.01036C8.89827 13.5844 8.80299 13.6171 8.72452 13.6825C8.65166 13.7429 8.61523 13.8235 8.61523 13.9241C8.61523 14.0298 8.65166 14.1179 8.72452 14.1884Z"/>
</svg>
