<svg width="24" height="24" viewBox="0 0 24 24" fill="none" xmlns="http://www.w3.org/2000/svg">
<path d="M17.0791 15.193C16.8513 14.9647 16.5421 14.8365 16.2196 14.8365H15.876C15.7821 14.8365 15.6918 14.8 15.6241 14.7348C15.4856 14.6012 15.4761 14.3833 15.5953 14.2323C16.697 12.8374 17.3522 11.0789 17.3522 9.1761C17.3522 4.66038 13.6918 1 9.1761 1C4.66038 1 1 4.66038 1 9.1761C1 13.6918 4.66038 17.3522 9.1761 17.3522C11.0789 17.3522 12.8374 16.697 14.2323 15.5953C14.3833 15.4761 14.6012 15.4856 14.7348 15.6241C14.8 15.6918 14.8365 15.7821 14.8365 15.876V16.2196C14.8365 16.5421 14.9647 16.8513 15.193 17.0791L20.1877 22.0638C20.706 22.581 21.5452 22.5806 22.0629 22.0629C22.5806 21.5452 22.581 20.706 22.0638 20.1877L17.0791 15.193ZM9.1761 14.8365C6.04402 14.8365 3.51572 12.3082 3.51572 9.1761C3.51572 6.04402 6.04402 3.51572 9.1761 3.51572C12.3082 3.51572 14.8365 6.04402 14.8365 9.1761C14.8365 12.3082 12.3082 14.8365 9.1761 14.8365Z"/>
</svg>
