<svg width="24" height="24" viewBox="0 0 24 24" fill="none">
<path d="M20 5H17.414L14.707 2.293C14.6143 2.19996 14.5041 2.12617 14.3828 2.07589C14.2614 2.0256 14.1313 1.99981 14 2H10C9.86866 1.99981 9.73857 2.0256 9.61724 2.07589C9.4959 2.12617 9.38571 2.19996 9.293 2.293L6.586 5H4C2.897 5 2 5.897 2 7V18C2 19.103 2.897 20 4 20H20C21.103 20 22 19.103 22 18V7C22 5.897 21.103 5 20 5ZM12 17C9.29 17 7 14.71 7 12C7 9.289 9.29 7 12 7C14.71 7 17 9.289 17 12C17 14.71 14.71 17 12 17Z"/>
<path d="M13 9H11V11H9V13H11V15H13V13H15V11H13V9Z"/>
</svg>
