<svg width="24" height="24" viewBox="0 0 24 24" fill="none" xmlns="http://www.w3.org/2000/svg">
<path d="M6.98465 11.7206C6.23671 11.723 5.50201 11.9114 4.85126 12.2677C5.76746 9.97628 7.28702 7.95579 9.25959 6.40611C9.37245 6.31631 9.4659 6.2059 9.5346 6.0812C9.6033 5.95651 9.64591 5.81995 9.65999 5.67934C9.67408 5.53873 9.65936 5.39682 9.61668 5.26171C9.574 5.12659 9.50419 5.00093 9.41125 4.89188C9.31831 4.78283 9.20404 4.69254 9.07498 4.62616C8.94592 4.55978 8.8046 4.51861 8.65907 4.505C8.51354 4.49139 8.36667 4.50562 8.22683 4.54685C8.08699 4.58809 7.95693 4.65554 7.84407 4.74534C3.79973 7.92034 2 12.3165 2 15.0421C2.00697 16.0058 2.30421 16.9468 2.85542 17.75C3.40663 18.5532 4.18797 19.184 5.10403 19.5653C5.69689 19.8428 6.34613 19.9896 7.00487 19.9951C7.58469 20.0223 8.16419 19.9355 8.70823 19.7399C9.25228 19.5443 9.74954 19.2439 10.1699 18.857C10.5902 18.4702 10.9248 18.0049 11.1535 17.4893C11.3821 16.9738 11.5 16.4187 11.5 15.8578C11.5 15.297 11.3821 14.7419 11.1535 14.2264C10.9248 13.7108 10.5902 13.2455 10.1699 12.8586C9.74954 12.4718 9.25228 12.1714 8.70823 11.9758C8.16419 11.7802 7.58469 11.6933 7.00487 11.7206H6.98465Z"/>
<path d="M17.7324 11.7511C17.0222 11.7527 16.3244 11.9409 15.707 12.2975C16.5764 10.0116 18.0153 7.99445 19.8826 6.44377C19.9994 6.35815 20.0978 6.24912 20.1717 6.1234C20.2456 5.99768 20.2933 5.85793 20.3121 5.71274C20.3308 5.56756 20.3201 5.42001 20.2807 5.27918C20.2412 5.13836 20.1738 5.00723 20.0826 4.89387C19.9914 4.78051 19.8783 4.68732 19.7504 4.62003C19.6224 4.55274 19.4823 4.51277 19.3385 4.5026C19.1948 4.49242 19.0506 4.51224 18.9147 4.56084C18.7788 4.60945 18.6541 4.68581 18.5483 4.78522C14.7086 7.95598 13 12.3463 13 15.0682C13.0045 16.0198 13.2785 16.9499 13.7892 17.7474C14.2998 18.545 15.0256 19.1762 15.8797 19.5658C16.4568 19.8511 17.0906 19.9979 17.7324 19.9951C18.2828 20.0223 18.833 19.9356 19.3495 19.7402C19.866 19.5449 20.3381 19.2449 20.7372 18.8586C21.1362 18.4722 21.4539 18.0075 21.671 17.4927C21.8881 16.9778 22 16.4235 22 15.8634C22 15.3032 21.8881 14.7489 21.671 14.2341C21.4539 13.7192 21.1362 13.2545 20.7372 12.8682C20.3381 12.4818 19.866 12.1819 19.3495 11.9865C18.833 11.7911 18.2828 11.7044 17.7324 11.7316V11.7511Z"/>
</svg>
