<svg viewBox="0 0 24 24" fill="none" xmlns="http://www.w3.org/2000/svg">
<g class="edificio-vector">
<path class="-delineado" d="M20.62 5.333h-5.517v1.334h5.518v14h-5.518V22H22V6.667c0-.354-.145-.693-.404-.943s-.61-.39-.975-.39ZM12.952 2h-9.49c-.388 0-.76.149-1.034.414a1.39 1.39 0 0 0-.428 1V22h12.414V3.413a1.39 1.39 0 0 0-.428-.999A1.488 1.488 0 0 0 12.952 2Zm.082 18.667h-2.069v-2H5.449v2H3.38V3.413a.078.078 0 0 1 .025-.056.083.083 0 0 1 .058-.024h9.49a.085.085 0 0 1 .058.024.08.08 0 0 1 .024.056v17.254Z M6.138 5.333h-1.38v1.334h1.38V5.333ZM8.897 5.333h-1.38v1.334h1.38V5.333ZM11.655 5.333h-1.38v1.334h1.38V5.333ZM6.138 8.667h-1.38V10h1.38V8.667ZM8.897 8.667h-1.38V10h1.38V8.667ZM11.655 8.667h-1.38V10h1.38V8.667ZM6.138 12h-1.38v1.333h1.38V12ZM8.897 12h-1.38v1.333h1.38V12ZM11.655 12h-1.38v1.333h1.38V12ZM6.138 15.333h-1.38v1.334h1.38v-1.334ZM8.897 15.333h-1.38v1.334h1.38v-1.334ZM11.655 15.333h-1.38v1.334h1.38v-1.334ZM16.483 8.667h-1.38V10h1.38V8.667ZM19.241 8.667h-1.379V10h1.38V8.667ZM16.483 12h-1.38v1.333h1.38V12ZM19.241 12h-1.379v1.333h1.38V12ZM16.483 15.333h-1.38v1.334h1.38v-1.334ZM19.241 15.333h-1.379v1.334h1.38v-1.334Z" />
<path class="-lleno" d="M20.62 5.333h-6.206V22H22V6.667c0-.354-.145-.693-.404-.943s-.61-.39-.975-.39Zm-3.448 11.334h-1.379v-1.334h1.38v1.334Zm0-3.334h-1.379V12h1.38v1.333Zm0-3.333h-1.379V8.667h1.38V10Zm2.759 6.667h-1.38v-1.334h1.38v1.334Zm0-3.334h-1.38V12h1.38v1.333Zm0-3.333h-1.38V8.667h1.38V10ZM11.572 2h-8.11c-.388 0-.76.149-1.034.414a1.39 1.39 0 0 0-.428 1V22h3.448v-2h4.138v2h3.448V3.413a1.39 1.39 0 0 0-.428-.999A1.488 1.488 0 0 0 11.572 2ZM5.448 16.667H4.07v-1.334h1.38v1.334Zm0-3.334H4.07V12h1.38v1.333Zm0-3.333H4.07V8.667h1.38V10Zm0-3.333H4.07V5.333h1.38v1.334Zm2.759 10h-1.38v-1.334h1.38v1.334Zm0-3.334h-1.38V12h1.38v1.333Zm0-3.333h-1.38V8.667h1.38V10Zm0-3.333h-1.38V5.333h1.38v1.334Zm2.758 10H9.587v-1.334h1.38v1.334Zm0-3.334H9.587V12h1.38v1.333Zm0-3.333H9.587V8.667h1.38V10Zm0-3.333H9.587V5.333h1.38v1.334Z" />
</g>
</svg>