<svg width="24" height="24" viewBox="0 0 24 24" fill="none" xmlns="http://www.w3.org/2000/svg">
<path d="M16.775 3.90001L20.5333 8.12814C20.6917 8.30626 20.6917 8.59689 20.5333 8.77501L11.4333 19.0125L7.56667 19.4953C7.05 19.5609 6.6125 19.0688 6.67083 18.4875L7.1 14.1375L16.2 3.90001C16.3583 3.72189 16.6167 3.72189 16.775 3.90001ZM23.525 2.82657L21.4917 0.539075C20.8583 -0.173425 19.8292 -0.173425 19.1917 0.539075L17.7167 2.19845C17.5583 2.37657 17.5583 2.6672 17.7167 2.84532L21.475 7.07345C21.6333 7.25157 21.8917 7.25157 22.05 7.07345L23.525 5.41407C24.1583 4.69689 24.1583 3.53907 23.525 2.82657ZM16 16.2281V21H2.66667V6.00001H12.2417C12.375 6.00001 12.5 5.93907 12.5958 5.83595L14.2625 3.96095C14.5792 3.6047 14.3542 3.00001 13.9083 3.00001H2C0.895833 3.00001 0 4.00782 0 5.25001V21.75C0 22.9922 0.895833 24 2 24H16.6667C17.7708 24 18.6667 22.9922 18.6667 21.75V14.3531C18.6667 13.8516 18.1292 13.6031 17.8125 13.9547L16.1458 15.8297C16.0542 15.9375 16 16.0781 16 16.2281Z"/>
</svg>
