<svg width="24" height="24" viewBox="0 0 24 24" fill="none" xmlns="http://www.w3.org/2000/svg">
<path d="M16.7625 17.1672L18.0958 15.6672C18.3042 15.4328 18.6667 15.5969 18.6667 15.9344V22.75C18.6667 23.9922 17.7708 25 16.6667 25H2C0.895833 25 0 23.9922 0 22.75V6.24998C0 5.00779 0.895833 3.99998 2 3.99998H13.3958C13.6917 3.99998 13.8417 4.4031 13.6333 4.64216L12.3 6.14216C12.2375 6.21248 12.1542 6.24998 12.0625 6.24998H2V22.75H16.6667V17.4297C16.6667 17.3312 16.7 17.2375 16.7625 17.1672ZM23.2875 7.70779L12.3458 20.0172L8.57917 20.4859C7.4875 20.6219 6.55833 19.5859 6.67917 18.3484L7.09583 14.1109L18.0375 1.80154C18.9917 0.728101 20.5333 0.728101 21.4833 1.80154L23.2833 3.82654C24.2375 4.89998 24.2375 6.63904 23.2875 7.70779ZM19.1708 9.15623L16.75 6.43279L9.00833 15.1469L8.70417 18.2078L11.425 17.8656L19.1708 9.15623ZM21.8708 5.42029L20.0708 3.39529C19.9 3.2031 19.6208 3.2031 19.4542 3.39529L18.1667 4.84373L20.5875 7.56716L21.875 6.11873C22.0417 5.92185 22.0417 5.61248 21.8708 5.42029Z"/>
</svg>
