<svg width="24" height="24" viewBox="0 0 24 24" fill="none">
<path d="M9 11C9.55228 11 10 10.5523 10 10C10 9.44772 9.55228 9 9 9C8.44772 9 8 9.44772 8 10C8 10.5523 8.44772 11 9 11Z"/>
<path d="M15 17C14.4477 17 14.0207 16.5255 13.7555 16.041C13.416 15.4207 12.7571 15 12 15C11.2429 15 10.584 15.4207 10.2445 16.041C9.97927 16.5255 9.55228 17 9 17C8.44772 17 7.98717 16.5453 8.12343 16.0101C8.56395 14.2798 10.1325 13 12 13C13.8674 13 15.436 14.2798 15.8766 16.0101C16.0128 16.5453 15.5523 17 15 17Z"/>
<path d="M16 10C16 10.5523 15.5523 11 15 11C14.4477 11 14 10.5523 14 10C14 9.44772 14.4477 9 15 9C15.5523 9 16 9.44772 16 10Z"/>
<path fill-rule="evenodd" clip-rule="evenodd" d="M22 12C22 17.5228 17.5228 22 12 22C6.47715 22 2 17.5228 2 12C2 6.47715 6.47715 2 12 2C17.5228 2 22 6.47715 22 12ZM20 12C20 16.4183 16.4183 20 12 20C7.58172 20 4 16.4183 4 12C4 7.58172 7.58172 4 12 4C16.4183 4 20 7.58172 20 12Z"/>
</svg>
