<svg width="24" height="24" viewBox="0 0 24 24" fill="none">
<path d="M6.85714 6.9375V5.0625C6.85714 4.75313 7.14643 4.5 7.5 4.5H9.64286C9.99643 4.5 10.2857 4.75313 10.2857 5.0625V6.9375C10.2857 7.24687 9.99643 7.5 9.64286 7.5H7.5C7.14643 7.5 6.85714 7.24687 6.85714 6.9375ZM14.3571 7.5H16.5C16.8536 7.5 17.1429 7.24687 17.1429 6.9375V5.0625C17.1429 4.75313 16.8536 4.5 16.5 4.5H14.3571C14.0036 4.5 13.7143 4.75313 13.7143 5.0625V6.9375C13.7143 7.24687 14.0036 7.5 14.3571 7.5ZM7.5 12H9.64286C9.99643 12 10.2857 11.7469 10.2857 11.4375V9.5625C10.2857 9.25313 9.99643 9 9.64286 9H7.5C7.14643 9 6.85714 9.25313 6.85714 9.5625V11.4375C6.85714 11.7469 7.14643 12 7.5 12ZM14.3571 12H16.5C16.8536 12 17.1429 11.7469 17.1429 11.4375V9.5625C17.1429 9.25313 16.8536 9 16.5 9H14.3571C14.0036 9 13.7143 9.25313 13.7143 9.5625V11.4375C13.7143 11.7469 14.0036 12 14.3571 12ZM10.2857 15.9375V14.0625C10.2857 13.7531 9.99643 13.5 9.64286 13.5H7.5C7.14643 13.5 6.85714 13.7531 6.85714 14.0625V15.9375C6.85714 16.2469 7.14643 16.5 7.5 16.5H9.64286C9.99643 16.5 10.2857 16.2469 10.2857 15.9375ZM14.3571 16.5H16.5C16.8536 16.5 17.1429 16.2469 17.1429 15.9375V14.0625C17.1429 13.7531 16.8536 13.5 16.5 13.5H14.3571C14.0036 13.5 13.7143 13.7531 13.7143 14.0625V15.9375C13.7143 16.2469 14.0036 16.5 14.3571 16.5ZM24 22.3125V24H0V22.3125C0 22.0031 0.289286 21.75 0.642857 21.75H1.6875V1.125C1.6875 0.501562 2.26071 0 2.97321 0H21.0268C21.7393 0 22.3125 0.501562 22.3125 1.125V21.75H23.3571C23.7107 21.75 24 22.0031 24 22.3125ZM4.25893 21.7031H10.2857V18.5625C10.2857 18.2531 10.575 18 10.9286 18H13.0714C13.425 18 13.7143 18.2531 13.7143 18.5625V21.7031H19.7411V2.29688L4.28571 2.25L4.25893 21.7031Z"/>
</svg>
