<svg width="24" height="24" viewBox="0 0 24 24" fill="none" xmlns="http://www.w3.org/2000/svg">
<path d="M21.426 11.095L4.42601 3.09498C4.25482 3.01443 4.0643 2.9841 3.87657 3.00749C3.68883 3.03089 3.51158 3.10707 3.36541 3.22717C3.21923 3.34727 3.11012 3.50638 3.05076 3.68601C2.99139 3.86564 2.98419 4.05843 3.03001 4.24198L4.24201 9.09098L12 12L4.24201 14.909L3.03001 19.758C2.98333 19.9417 2.98992 20.1349 3.04902 20.3149C3.10811 20.495 3.21726 20.6546 3.3637 20.7749C3.51014 20.8952 3.68782 20.9713 3.87594 20.9944C4.06406 21.0174 4.25486 20.9864 4.42601 20.905L21.426 12.905C21.5978 12.8242 21.7431 12.6962 21.8448 12.536C21.9466 12.3757 22.0006 12.1898 22.0006 12C22.0006 11.8102 21.9466 11.6242 21.8448 11.464C21.7431 11.3037 21.5978 11.1757 21.426 11.095Z"/>
</svg>
