<svg viewBox="0 0 24 24" fill="none" xmlns="http://www.w3.org/2000/svg">
<g id="escuela-vector">
<path class="-delineado" d="M21 11H19V5H20V3H4V5H5V11H3C2.73478 11 2.48043 11.1054 2.29289 11.2929C2.10536 11.4804 2 11.7348 2 12V21H22V12C22 11.7348 21.8946 11.4804 21.7071 11.2929C21.5196 11.1054 21.2652 11 21 11ZM14 19V15H10V19H7V5H17V19H14Z M9 6H11V8H9V6ZM13 6H15V8H13V6ZM9 10H11V12H9V10ZM13 10H15V12H13V10Z"/>
<path class="-lleno" fill-rule="evenodd" clip-rule="evenodd" d="M19 5V11H21C21.2652 11 21.5196 11.1054 21.7071 11.2929C21.8946 11.4804 22 11.7348 22 12V21H2V12C2 11.7348 2.10536 11.4804 2.29289 11.2929C2.48043 11.1054 2.73478 11 3 11H5V5H4V3H20V5H19ZM7 19H10H14H17V5H7V19Z M14 15V19H17V5H7V19H10V15H14ZM11 6H9V8H11V6ZM15 6H13V8H15V6ZM11 10H9V12H11V10ZM15 10H13V12H15V10Z"/>
</g>
</svg>
