<svg width="24" height="24" viewBox="0 0 24 24" fill="none" xmlns="http://www.w3.org/2000/svg">
<path d="M21.8305 8.36321L15.6098 7.79862L13.1806 1.81664C12.7436 0.727786 11.2527 0.727786 10.8157 1.81664L8.38647 7.81207L2.17855 8.36321C1.0475 8.45731 0.584798 9.93601 1.44594 10.7157L6.16293 14.9904L4.74912 21.3354C4.49206 22.4914 5.68738 23.4055 6.66419 22.7872L11.9981 19.4265L17.332 22.8006C18.3089 23.419 19.5042 22.5049 19.2471 21.3488L17.8333 14.9904L22.5503 10.7157C23.4114 9.93601 22.9616 8.45731 21.8305 8.36321ZM11.9981 16.9127L7.16545 19.9642L8.45074 14.2108L4.18359 10.3393L9.81314 9.82846L11.9981 4.41107L14.196 9.84191L19.8255 10.3527L15.5584 14.2242L16.8436 19.9777L11.9981 16.9127Z"/>
</svg>
