<svg width="24" height="24" viewBox="0 0 24 24" fill="none" xmlns="http://www.w3.org/2000/svg">
<path fill-rule="evenodd" clip-rule="evenodd" d="M13.2821 23.9323C19.3067 23.2925 24 18.1943 24 12C24 5.37258 18.6274 0 12 0C5.37258 0 0 5.37258 0 12C0 17.7928 4.10462 22.6269 9.5641 23.7526V14.8523H7V11.7227H9.5641V9.05682C9.5641 6.97046 11.1026 5 14.5641 5C15.9744 5 17 5.11591 17 5.11591L16.8718 8.01364H14.6923C13.4103 8.01364 13.2821 8.47727 13.2821 9.40454V11.7227H17L16.8718 14.8523H13.2821V23.9323Z"/>
</svg>
