<svg viewBox="0 0 24 24" fill="none" xmlns="http://www.w3.org/2000/svg">
<g id="facebook-vector">
<path class="-delineado" fill-rule="evenodd" clip-rule="evenodd" d="M24 12C24 18.6274 18.6274 24 12 24C5.37258 24 0 18.6274 0 12C0 5.37258 5.37258 0 12 0C18.6274 0 24 5.37258 24 12ZM9.56393 21.701V14.8522H6.99982V11.7226H9.56393V9.05673C9.56393 6.97037 11.1024 4.99991 14.5639 4.99991C15.9742 4.99991 16.9998 5.11582 16.9998 5.11582L16.8716 8.01355H14.6921C13.4101 8.01355 13.2819 8.47718 13.2819 9.40446V11.7226H16.9998L16.8716 14.8522H13.2819V21.9185C18.1994 21.2894 22.0002 17.0885 22.0002 11.9999C22.0002 6.47706 17.523 1.99991 12.0002 1.99991C6.47733 1.99991 2.00018 6.47706 2.00018 11.9999C2.00018 16.6824 5.21855 20.6133 9.56393 21.701Z"/>
<path class="-lleno" d="M13.2821 23.9323C19.3067 23.2925 24 18.1943 24 12C24 5.37258 18.6274 0 12 0C5.37258 0 0 5.37258 0 12C0 17.7928 4.10462 22.6269 9.5641 23.7526V14.8523H7V11.7227H9.5641V9.05682C9.5641 6.97046 11.1026 5 14.5641 5C15.9744 5 17 5.11591 17 5.11591L16.8718 8.01364H14.6923C13.4103 8.01364 13.2821 8.47727 13.2821 9.40454V11.7227H17L16.8718 14.8523H13.2821V23.9323Z"/>
</g>
</svg>
