<svg width="24" height="24" viewBox="0 0 24 24" fill="none" xmlns="http://www.w3.org/2000/svg">
<path fill-rule="evenodd" clip-rule="evenodd" d="M24 12C24 18.6274 18.6274 24 12 24C5.37258 24 0 18.6274 0 12C0 5.37258 5.37258 0 12 0C18.6274 0 24 5.37258 24 12ZM9.56393 21.701V14.8522H6.99982V11.7226H9.56393V9.05673C9.56393 6.97037 11.1024 4.99991 14.5639 4.99991C15.9742 4.99991 16.9998 5.11582 16.9998 5.11582L16.8716 8.01355H14.6921C13.4101 8.01355 13.2819 8.47718 13.2819 9.40446V11.7226H16.9998L16.8716 14.8522H13.2819V21.9185C18.1994 21.2894 22.0002 17.0885 22.0002 11.9999C22.0002 6.47706 17.523 1.99991 12.0002 1.99991C6.47733 1.99991 2.00018 6.47706 2.00018 11.9999C2.00018 16.6824 5.21855 20.6133 9.56393 21.701Z"/>
</svg>
