<svg viewBox="0 0 24 24" fill="none" xmlns="http://www.w3.org/2000/svg">
<g id="fiesta-svg">
<path class="-delineado" d="M17.2978 9.01144C16.9378 8.60144 16.5678 8.19144 16.1778 7.80144L15.8878 7.53144L16.0278 7.41144C16.5168 6.99165 16.8653 6.43196 17.0262 5.80788C17.1872 5.1838 17.1528 4.52538 16.9278 3.92144C16.6017 3.24041 16.0854 2.66837 15.4412 2.27442C14.797 1.88047 14.0526 1.68147 13.2978 1.70144V3.70144C13.6536 3.69649 14.0042 3.78655 14.3136 3.96234C14.623 4.13812 14.8799 4.39326 15.0578 4.70144C15.2278 5.10144 15.0578 5.54144 14.5878 6.01144C14.5178 6.09144 14.4378 6.14144 14.3678 6.21144C11.3678 3.80144 8.07777 2.44144 6.46777 4.05144C6.29913 4.22384 6.16054 4.42327 6.05777 4.64144V4.74144L5.87777 5.27144L1.46777 18.3714C1.30096 18.8651 1.25417 19.3914 1.33127 19.9067C1.40837 20.4221 1.60714 20.9117 1.91112 21.3349C2.2151 21.7581 2.61554 22.1028 3.07928 22.3405C3.54301 22.5781 4.05669 22.7019 4.57777 22.7014C4.91801 22.6981 5.25556 22.6408 5.57777 22.5314L19.2978 17.9814C19.4664 17.9187 19.6149 17.8116 19.7278 17.6714L19.9378 17.4914C21.3678 16.0514 20.4478 13.2814 18.5278 10.5914C19.6678 9.9261 20.9805 9.6162 22.2978 9.70144V7.70144C20.5351 7.60446 18.7864 8.06262 17.2978 9.01144V9.01144ZM4.99777 20.6314C4.77078 20.7066 4.52737 20.7171 4.29472 20.662C4.06207 20.6068 3.84934 20.488 3.68027 20.3189C3.5112 20.1499 3.39244 19.9371 3.33726 19.7045C3.28208 19.4718 3.29264 19.2284 3.36777 19.0014L4.72777 14.9014C5.69835 16.7523 7.18973 18.2785 9.01777 19.2914L4.99777 20.6314ZM11.9978 18.3014C10.4865 17.9012 9.10786 17.1086 8.00151 16.0041C6.89516 14.8995 6.10041 13.5221 5.69777 12.0114L6.69777 9.01144L6.75777 9.10144C6.86777 9.32144 7.00777 9.55144 7.14777 9.78144C7.28777 10.0114 7.30777 10.0714 7.40777 10.2214C7.50777 10.3714 7.73777 10.7014 7.91777 10.9514C8.09777 11.2014 8.10777 11.2314 8.21777 11.3714C8.32777 11.5114 8.64777 11.9214 8.87777 12.1914L9.16777 12.5414C9.50777 12.9314 9.86777 13.3114 10.2478 13.7014C10.6278 14.0914 10.9278 14.3414 11.2478 14.7014L11.5778 14.9814L12.3578 15.6114L12.7278 15.8914C13.0078 16.0914 13.2778 16.2914 13.5578 16.4714L13.8678 16.6714C14.2278 16.8914 14.5878 17.1014 14.9378 17.2814H14.9878L11.9978 18.3014ZM18.5078 16.0714H18.4478C17.7578 16.4514 14.8878 15.5014 11.6578 12.2614C11.3178 11.9214 10.9978 11.5914 10.7078 11.2614L10.4178 10.9114L9.88777 10.2714L9.59777 9.87144C9.46777 9.68144 9.32777 9.50144 9.20777 9.32144L8.94777 8.90144L8.65777 8.43144C8.57777 8.29144 8.51777 8.16144 8.44777 8.03144C8.37777 7.90144 8.29777 7.77144 8.23777 7.63144C8.18414 7.51427 8.13739 7.39407 8.09777 7.27144C8.04777 7.14144 7.98777 7.01144 7.94777 6.89144C7.90777 6.77144 7.89777 6.70144 7.86777 6.58144C7.83777 6.46144 7.81777 6.36144 7.79777 6.26144C7.79278 6.17485 7.79278 6.08804 7.79777 6.00144C7.78814 5.92173 7.78814 5.84115 7.79777 5.76144L7.90777 5.45144C8.26777 5.09144 10.1378 5.45144 12.6378 7.35144C12.214 7.5427 11.761 7.66103 11.2978 7.70144V9.70144C12.36 9.64034 13.3906 9.31742 14.2978 8.76144L14.7778 9.22144C15.1978 9.64144 15.5878 10.0714 15.9578 10.5014C15.3854 11.5366 15.1742 12.7329 15.3578 13.9014L17.3578 13.5114C17.2988 13.1404 17.2988 12.7624 17.3578 12.3914C17.663 12.8543 17.9337 13.3389 18.1678 13.8414C18.7278 15.1614 18.6878 15.9014 18.5078 16.0714V16.0714Z"/>
<path class="-lleno" d="M3.6878 11.7016L1.4578 18.4016C1.29685 18.8935 1.25459 19.4165 1.33447 19.9279C1.41436 20.4393 1.61413 20.9245 1.91744 21.3438C2.22076 21.7632 2.61901 22.1049 3.07965 22.3408C3.54029 22.5768 4.05023 22.7005 4.5678 22.7016C4.90804 22.6983 5.24558 22.6409 5.5678 22.5316L12.0878 20.3616C8.40793 18.4823 5.45413 15.437 3.6878 11.7016Z M22.2878 7.70162C20.5251 7.60463 18.7765 8.06279 17.2878 9.01162C16.9278 8.60162 16.5578 8.19162 16.1678 7.80162L15.8778 7.53162L16.0178 7.41162C16.5068 6.99182 16.8553 6.43213 17.0163 5.80805C17.1772 5.18397 17.1428 4.52555 16.9178 3.92162C16.5927 3.23979 16.0766 2.66705 15.4322 2.27295C14.7878 1.87886 14.0429 1.68038 13.2878 1.70162V3.70162C13.6436 3.69666 13.9943 3.78672 14.3037 3.96251C14.613 4.13829 14.8699 4.39344 15.0478 4.70162C15.2178 5.10162 15.0478 5.54162 14.5778 6.01162L14.3478 6.22162C13.3047 5.35247 12.1596 4.61369 10.9378 4.02162C8.4078 2.88162 7.1078 3.41162 6.4678 4.02162C6.27278 4.2171 6.11668 4.44786 6.0078 4.70162L5.8278 5.23162L4.3878 9.57162C5.5278 12.4116 8.2878 17.4616 14.2878 19.6416L19.2878 17.9816C19.4564 17.9188 19.605 17.8117 19.7178 17.6716L19.9278 17.4916C21.3578 16.0516 20.4378 13.2816 18.5178 10.5916C19.6578 9.92627 20.9706 9.61637 22.2878 9.70162V7.70162ZM18.4978 16.0716H18.4378C17.7478 16.4416 14.8878 15.5016 11.6478 12.2616C11.3078 11.9216 10.9878 11.5916 10.6978 11.2616C10.5978 11.1516 10.5078 11.0316 10.4078 10.9116L9.8778 10.2716L9.5978 9.88162C9.4578 9.69162 9.3178 9.50162 9.1978 9.32162C9.0778 9.14162 9.0378 9.06162 8.9578 8.93162C8.8778 8.80162 8.7378 8.59162 8.6478 8.42162C8.5578 8.25162 8.5178 8.18162 8.4578 8.05162C8.3978 7.92162 8.2878 7.77162 8.2278 7.63162C8.1678 7.49162 8.1378 7.40162 8.0878 7.29162C8.0378 7.18162 7.9778 7.02162 7.9378 6.89162C7.8978 6.76162 7.8878 6.70162 7.8678 6.60162C7.8478 6.50162 7.8078 6.36162 7.7878 6.26162C7.78299 6.18169 7.78299 6.10154 7.7878 6.02162C7.77797 5.93523 7.77797 5.848 7.7878 5.76162L7.8978 5.45162C8.0678 5.27162 8.8078 5.22162 10.1278 5.82162C11.0099 6.2454 11.8446 6.76163 12.6178 7.36162C12.1963 7.54764 11.7469 7.66253 11.2878 7.70162V9.70162C12.3502 9.64134 13.381 9.31835 14.2878 8.76162L14.7778 9.22162C15.2178 9.65162 15.6078 10.0816 15.9678 10.4916C15.3648 11.5198 15.1253 12.7208 15.2878 13.9016L17.2878 13.5116C17.2202 13.1346 17.2202 12.7486 17.2878 12.3716C18.5778 14.3416 18.8178 15.7616 18.4978 16.0716Z"/>
</g>
</svg>
