<svg width="24" height="24" viewBox="0 0 24 24" fill="none">
<path d="M17.9999 8.31C17.6399 7.9 17.2699 7.49 16.8799 7.1L16.5899 6.83L16.7299 6.71C17.2189 6.29021 17.5674 5.73052 17.7284 5.10644C17.8893 4.48236 17.855 3.82394 17.6299 3.22C17.3038 2.53897 16.7875 1.96693 16.1433 1.57298C15.4992 1.17903 14.7547 0.980027 13.9999 1V3C14.3557 2.99505 14.7064 3.08511 15.0158 3.2609C15.3252 3.43668 15.582 3.69182 15.7599 4C15.9299 4.4 15.7599 4.84 15.2899 5.31C15.2199 5.39 15.1399 5.44 15.0699 5.51C12.0699 3.1 8.77992 1.74 7.16992 3.35C7.00128 3.5224 6.86269 3.72183 6.75992 3.94V4.04L6.57992 4.57L2.16992 17.67C2.00311 18.1637 1.95632 18.69 2.03342 19.2053C2.11051 19.7207 2.30929 20.2102 2.61327 20.6334C2.91725 21.0567 3.31769 21.4014 3.78142 21.639C4.24516 21.8767 4.75884 22.0004 5.27992 22C5.62016 21.9967 5.9577 21.9393 6.27992 21.83L19.9999 17.28C20.1685 17.2172 20.3171 17.1101 20.4299 16.97L20.6399 16.79C22.0699 15.35 21.1499 12.58 19.2299 9.89C20.37 9.22466 21.6827 8.91476 22.9999 9V7C21.2373 6.90302 19.4886 7.36118 17.9999 8.31ZM5.69992 19.93C5.47293 20.0051 5.22952 20.0157 4.99687 19.9605C4.76422 19.9053 4.55149 19.7866 4.38242 19.6175C4.21335 19.4484 4.09459 19.2357 4.03941 19.0031C3.98423 18.7704 3.99479 18.527 4.06992 18.3L5.42992 14.2C6.4005 16.0509 7.89188 17.577 9.71992 18.59L5.69992 19.93ZM12.6999 17.6C11.1886 17.1998 9.81 16.4072 8.70365 15.3026C7.5973 14.198 6.80256 12.8206 6.39992 11.31L7.39992 8.31L7.45992 8.4C7.56992 8.62 7.70992 8.85 7.84992 9.08C7.98992 9.31 8.00992 9.37 8.10992 9.52C8.20992 9.67 8.43992 10 8.61992 10.25C8.79992 10.5 8.80992 10.53 8.91992 10.67C9.02992 10.81 9.34992 11.22 9.57992 11.49L9.86992 11.84C10.2099 12.23 10.5699 12.61 10.9499 13C11.3299 13.39 11.6299 13.64 11.9499 14L12.2799 14.28L13.0599 14.91L13.4299 15.19C13.7099 15.39 13.9799 15.59 14.2599 15.77L14.5699 15.97C14.9299 16.19 15.2899 16.4 15.6399 16.58H15.6899L12.6999 17.6ZM19.2099 15.37H19.1499C18.4599 15.75 15.5899 14.8 12.3599 11.56C12.0199 11.22 11.6999 10.89 11.4099 10.56L11.1199 10.21L10.5899 9.57L10.2999 9.17C10.1699 8.98 10.0299 8.8 9.90992 8.62L9.64992 8.2L9.35992 7.73C9.27992 7.59 9.21992 7.46 9.14992 7.33C9.07992 7.2 8.99992 7.07 8.93992 6.93C8.88629 6.81283 8.83954 6.69263 8.79992 6.57C8.74992 6.44 8.68992 6.31 8.64992 6.19C8.60992 6.07 8.59992 6 8.56992 5.88C8.53992 5.76 8.51992 5.66 8.49992 5.56C8.49493 5.47341 8.49493 5.3866 8.49992 5.3C8.49029 5.22029 8.49029 5.13971 8.49992 5.06L8.60992 4.75C8.96992 4.39 10.8399 4.75 13.3399 6.65C12.9161 6.84126 12.4631 6.95959 11.9999 7V9C13.0621 8.9389 14.0928 8.61598 14.9999 8.06L15.4799 8.52C15.8999 8.94 16.2899 9.37 16.6599 9.8C16.0875 10.8351 15.8764 12.0315 16.0599 13.2L18.0599 12.81C18.001 12.439 18.001 12.061 18.0599 11.69C18.3651 12.1528 18.6359 12.6375 18.8699 13.14C19.4299 14.46 19.3899 15.2 19.2099 15.37Z"/>
</svg>
