<svg width="24" height="24" viewBox="0 0 24 24" fill="none" xmlns="http://www.w3.org/2000/svg">
<path d="M19.6364 1.09088H4.36367C3.49569 1.09088 2.66326 1.43569 2.0495 2.04944C1.43575 2.6632 1.09094 3.49563 1.09094 4.36361V5.63997C1.09079 6.09046 1.18363 6.53612 1.36367 6.94906V7.01452C1.51779 7.36467 1.7361 7.68288 2.00731 7.9527L8.72731 14.6291V21.8182C8.72693 22.0035 8.77382 22.186 8.86353 22.3482C8.95324 22.5105 9.08282 22.6472 9.24003 22.7454C9.41364 22.853 9.61397 22.9097 9.81821 22.9091C9.98899 22.908 10.1571 22.8669 10.3091 22.7891L14.6728 20.6072C14.8527 20.5166 15.004 20.3779 15.1099 20.2065C15.2158 20.0351 15.2721 19.8378 15.2728 19.6363V14.6291L21.9491 7.9527C22.2203 7.68288 22.4386 7.36467 22.5928 7.01452V6.94906C22.7878 6.53935 22.8956 6.09355 22.9091 5.63997V4.36361C22.9091 3.49563 22.5643 2.6632 21.9506 2.04944C21.3368 1.43569 20.5044 1.09088 19.6364 1.09088ZM13.4073 13.4072C13.3062 13.5092 13.2262 13.6301 13.1719 13.763C13.1176 13.8959 13.0901 14.0382 13.0909 14.1818V18.96L10.9091 20.0509V14.1818C10.91 14.0382 10.8824 13.8959 10.8281 13.763C10.7739 13.6301 10.6939 13.5092 10.5928 13.4072L4.81094 7.63634H19.1891L13.4073 13.4072ZM20.7273 5.45452H3.27276V4.36361C3.27276 4.07428 3.3877 3.7968 3.59228 3.59222C3.79687 3.38763 4.07434 3.2727 4.36367 3.2727H19.6364C19.9257 3.2727 20.2032 3.38763 20.4078 3.59222C20.6124 3.7968 20.7273 4.07428 20.7273 4.36361V5.45452Z"/>
</svg>
