<svg width="24" height="24" viewBox="0 0 24 24" fill="none" xmlns="http://www.w3.org/2000/svg">
<path d="M19.6363 1.09088H4.36355C3.49557 1.09088 2.66314 1.43569 2.04938 2.04944C1.43562 2.6632 1.09082 3.49563 1.09082 4.36361V5.63997C1.09066 6.09046 1.18351 6.53612 1.36355 6.94906V7.01452C1.51767 7.36467 1.73598 7.68288 2.00718 7.9527L8.72718 14.6291V21.8182C8.72681 22.0035 8.7737 22.186 8.86341 22.3482C8.95312 22.5105 9.0827 22.6472 9.23991 22.7454C9.41352 22.853 9.61385 22.9097 9.81809 22.9091C9.98887 22.908 10.157 22.8669 10.309 22.7891L14.6726 20.6072C14.8525 20.5166 15.0038 20.3779 15.1097 20.2065C15.2156 20.0351 15.272 19.8378 15.2726 19.6363V14.6291L21.949 7.9527C22.2202 7.68288 22.4385 7.36467 22.5926 7.01452V6.94906C22.7877 6.53935 22.8954 6.09355 22.909 5.63997V4.36361C22.909 3.49563 22.5642 2.6632 21.9504 2.04944C21.3367 1.43569 20.5043 1.09088 19.6363 1.09088ZM13.4072 13.4072C13.3061 13.5092 13.2261 13.6301 13.1718 13.763C13.1175 13.8959 13.09 14.0382 13.0908 14.1818V18.96L10.909 20.0509V14.1818C10.9098 14.0382 10.8823 13.8959 10.828 13.763C10.7737 13.6301 10.6937 13.5092 10.5926 13.4072L4.81082 7.63634H19.189L13.4072 13.4072ZM20.7272 5.45452H3.27264V4.36361C3.27264 4.07428 3.38757 3.7968 3.59216 3.59222C3.79674 3.38763 4.07422 3.2727 4.36355 3.2727H19.6363C19.9256 3.2727 20.2031 3.38763 20.4077 3.59222C20.6122 3.7968 20.7272 4.07428 20.7272 4.36361V5.45452Z"/>
<path d="M13.4072 13.4072C13.3061 13.5092 13.2261 13.6301 13.1718 13.763C13.1175 13.8959 13.09 14.0382 13.0908 14.1818V18.96L10.909 20.0509V14.1818C10.9098 14.0382 10.8823 13.8959 10.828 13.763C10.7737 13.6301 10.6937 13.5092 10.5926 13.4072L4.81082 7.63634H19.189L13.4072 13.4072Z"/>
</svg>
