<svg viewBox="0 0 24 24" fill="none" xmlns="http://www.w3.org/2000/svg">
<g id="filtro-vector">
<path class="-delineado" d="M5.7222 4.5H18.2904L11.9937 12.375L5.7222 4.5ZM2.26595 4.0125C4.80472 7.25 9.49265 13.25 9.49265 13.25V20.75C9.49265 21.4375 10.0582 22 10.7495 22H13.2631C13.9544 22 14.5199 21.4375 14.5199 20.75V13.25C14.5199 13.25 19.1953 7.25 21.7341 4.0125C22.375 3.1875 21.7843 2 20.7412 2H3.25883C2.21567 2 1.62497 3.1875 2.26595 4.0125Z"/>
<path class="-lleno" d="M2.26595 4.0125C4.80472 7.25 9.49265 13.25 9.49265 13.25V20.75C9.49265 21.4375 10.0582 22 10.7495 22H13.2631C13.9544 22 14.5199 21.4375 14.5199 20.75V13.25C14.5199 13.25 19.1953 7.25 21.7341 4.0125C22.375 3.1875 21.7843 2 20.7412 2H3.25883C2.21567 2 1.62497 3.1875 2.26595 4.0125Z"/>
</g>
</svg>
