<svg width="24" height="24" viewBox="0 0 24 24" fill="none" xmlns="http://www.w3.org/2000/svg">
<path d="M6 9.6C6 8.93726 6.53726 8.4 7.2 8.4H8.4V7.2C8.4 6.53726 8.93726 6 9.6 6C10.2627 6 10.8 6.53726 10.8 7.2V8.4H12C12.6628 8.4 13.2 8.93726 13.2 9.6C13.2 10.2627 12.6628 10.8 12 10.8H10.8V12C10.8 12.6628 10.2627 13.2 9.6 13.2C8.93725 13.2 8.4 12.6628 8.4 12V10.8H7.2C6.53726 10.8 6 10.2627 6 9.6Z"/>
<path fill-rule="evenodd" clip-rule="evenodd" d="M2.3999 9.59999C2.3999 5.62354 5.62345 2.39999 9.5999 2.39999C13.5763 2.39999 16.7999 5.62354 16.7999 9.59999C16.7999 11.155 16.3069 12.5948 15.4687 13.7718L21.2484 19.5515C21.717 20.0201 21.717 20.7799 21.2484 21.2485C20.7798 21.7171 20.02 21.7171 19.5514 21.2485L13.7717 15.4688C12.5947 16.307 11.1549 16.8 9.5999 16.8C5.62345 16.8 2.3999 13.5764 2.3999 9.59999ZM9.5999 4.79999C6.94893 4.79999 4.7999 6.94903 4.7999 9.59999C4.7999 12.2509 6.94893 14.4 9.5999 14.4C12.2508 14.4 14.3999 12.2509 14.3999 9.59999C14.3999 6.94903 12.2508 4.79999 9.5999 4.79999Z"/>
</svg>
