<svg width="24" height="24" viewBox="0 0 24 24" fill="none" xmlns="http://www.w3.org/2000/svg">
<path fill-rule="evenodd" clip-rule="evenodd" d="M12 24C18.6274 24 24 18.6274 24 12C24 5.37258 18.6274 0 12 0C5.37258 0 0 5.37258 0 12C0 18.6274 5.37258 24 12 24ZM5.61508 6.65901C6.0089 6.23705 6.54305 6 7.1 6H16.9C17.457 6 17.9911 6.23705 18.3849 6.65901C18.7787 7.08097 19 7.65326 19 8.25V15.75C19 16.3467 18.7787 16.919 18.3849 17.341C17.9911 17.7629 17.457 18 16.9 18H7.1C6.54305 18 6.0089 17.7629 5.61508 17.341C5.22125 16.919 5 16.3467 5 15.75V8.25C5 7.65326 5.22125 7.08097 5.61508 6.65901ZM16.431 7.5L12 11.0625L7.569 7.5H16.431ZM17.395 16.2803C17.2637 16.421 17.0857 16.5 16.9 16.5H7.1C6.91435 16.5 6.7363 16.421 6.60503 16.2803C6.47375 16.1397 6.4 15.9489 6.4 15.75V8.4375L11.58 12.6C11.7012 12.6974 11.8485 12.75 12 12.75C12.1515 12.75 12.2988 12.6974 12.42 12.6L17.6 8.4375V15.75C17.6 15.9489 17.5263 16.1397 17.395 16.2803Z"/>
</svg>
