<svg width="24" height="24" viewBox="0 0 24 24" fill="none" xmlns="http://www.w3.org/2000/svg">
<path fill-rule="evenodd" clip-rule="evenodd" d="M12 21C16.9706 21 21 16.9706 21 12C21 7.02943 16.9706 3 12 3C7.02943 3 3 7.02943 3 12C3 16.9706 7.02943 21 12 21ZM13.125 8.625C13.125 8.00368 12.6213 7.5 12 7.5C11.3787 7.5 10.875 8.00368 10.875 8.625V10.875H8.625C8.00368 10.875 7.5 11.3787 7.5 12C7.5 12.6213 8.00368 13.125 8.625 13.125H10.875V15.375C10.875 15.9963 11.3787 16.5 12 16.5C12.6213 16.5 13.125 15.9963 13.125 15.375V13.125H15.375C15.9963 13.125 16.5 12.6213 16.5 12C16.5 11.3787 15.9963 10.875 15.375 10.875H13.125V8.625Z"/>
</svg>
