<svg width="24" height="24" viewBox="0 0 24 24" fill="none" xmlns="http://www.w3.org/2000/svg">
<path fill-rule="evenodd" clip-rule="evenodd" d="M12 4.5C7.85787 4.5 4.5 7.85787 4.5 12C4.5 16.1422 7.85786 19.5 12 19.5C16.1422 19.5 19.5 16.1422 19.5 12C19.5 7.85786 16.1422 4.5 12 4.5ZM1.5 12C1.5 6.20101 6.20101 1.5 12 1.5C17.799 1.5 22.5 6.20102 22.5 12C22.5 17.799 17.799 22.5 12 22.5C6.20102 22.5 1.5 17.799 1.5 12ZM12 7.5C12.8284 7.5 13.5 8.17157 13.5 9V10.5H15C15.8284 10.5 16.5 11.1716 16.5 12C16.5 12.8284 15.8284 13.5 15 13.5H13.5V15C13.5 15.8284 12.8284 16.5 12 16.5C11.1716 16.5 10.5 15.8284 10.5 15V13.5H9C8.17157 13.5 7.5 12.8284 7.5 12C7.5 11.1716 8.17157 10.5 9 10.5H10.5V9C10.5 8.17157 11.1716 7.5 12 7.5Z"/>
</svg>
