<svg width="24" height="24" viewBox="0 0 24 24" fill="none" xmlns="http://www.w3.org/2000/svg">
<path d="M12 1.49999C12.9431 1.49691 13.882 1.62462 14.79 1.87949C16.5425 2.3603 18.1375 3.29411 19.4145 4.58699C20.7066 5.86438 21.6399 7.45928 22.1205 9.21149C22.374 10.107 22.5 11.0355 22.5 12C22.5 12.9645 22.374 13.893 22.1205 14.79C21.8807 15.6699 21.5256 16.5142 21.0645 17.301C20.1429 18.8528 18.8449 20.1472 17.2905 21.0645C16.5065 21.527 15.6654 21.885 14.7885 22.1295C13.8799 22.3778 12.942 22.5024 12 22.5C11.0577 22.503 10.1192 22.3789 9.21003 22.131C8.33076 21.8846 7.48684 21.5262 6.69903 21.0645C5.92694 20.6066 5.2141 20.0554 4.57653 19.4235C3.94454 18.786 3.3934 18.0731 2.93553 17.301C2.47423 16.5126 2.11629 15.6682 1.87053 14.7885C1.62225 13.8799 1.49763 12.9419 1.50003 12C1.50003 11.0355 1.62303 10.107 1.86903 9.20999C2.11416 8.33362 2.4727 7.49301 2.93553 6.70949C3.8528 5.15509 5.1472 3.85708 6.69903 2.93549C7.48629 2.47421 8.33112 2.11912 9.21153 1.87949C10.1191 1.62491 11.0575 1.4972 12 1.49999Z"/>
</svg>
