<svg width="24" height="24" viewBox="0 0 24 24" fill="none" xmlns="http://www.w3.org/2000/svg">
<path fill-rule="evenodd" clip-rule="evenodd" d="M14.382 3.32249C13.6068 3.10545 12.8051 2.99691 12 2.99999C11.169 2.99999 10.377 3.10949 9.61803 3.32249L9.60903 3.32549C8.83803 3.53699 8.12403 3.83849 7.46103 4.22699C6.1289 5.01966 5.01776 6.13493 4.23003 7.46999L4.22703 7.47599C3.83132 8.1463 3.52473 8.86537 3.31503 9.61499C3.10353 10.3923 2.99758 11.1945 3.00003 12C3.00003 12.8325 3.10503 13.6275 3.31503 14.3865C3.73428 15.8896 4.53402 17.2592 5.63703 18.363C6.19203 18.9105 6.79803 19.3785 7.46103 19.773C8.13651 20.1683 8.85992 20.4753 9.61353 20.6865C10.3915 20.897 11.1941 21.0025 12 21C12.8325 21 13.6275 20.895 14.3865 20.685C15.159 20.4675 15.8715 20.163 16.5255 19.7745L16.5315 19.7715C17.8661 18.9829 18.9808 17.8713 19.773 16.539C20.1671 15.8662 20.4698 15.1438 20.673 14.391L20.6775 14.382C20.8946 13.6067 21.0031 12.8051 21 12C21 11.169 20.892 10.377 20.6775 9.61799L20.6745 9.60899C20.4715 8.86039 20.1688 8.14247 19.7745 7.47449L19.7715 7.46849C19.3815 6.8046 18.9065 6.19445 18.3585 5.65349L18.3465 5.64149C17.8056 5.09357 17.1954 4.61856 16.5315 4.22849L16.5255 4.22549C15.8576 3.83124 15.1396 3.52853 14.391 3.32549L14.382 3.32249ZM21.0645 17.3025C20.1427 18.8537 18.8447 20.1476 17.2905 21.0645C16.5065 21.527 15.6654 21.885 14.7885 22.1295C13.8799 22.3778 12.942 22.5024 12 22.5C11.0577 22.503 10.1192 22.3789 9.21003 22.131C8.33076 21.8846 7.48684 21.5262 6.69903 21.0645C5.92694 20.6066 5.2141 20.0554 4.57653 19.4235C3.94454 18.786 3.3934 18.0731 2.93553 17.301C2.47423 16.5126 2.11629 15.6682 1.87053 14.7885C1.62225 13.8799 1.49763 12.9419 1.50003 12C1.50003 11.0355 1.62303 10.107 1.86903 9.20999C2.11416 8.33362 2.4727 7.49301 2.93553 6.70949C3.8528 5.15509 5.1472 3.85708 6.69903 2.93549C7.48629 2.47421 8.33112 2.11912 9.21153 1.87949C10.1191 1.62491 11.0575 1.4972 12 1.49999C12.9431 1.49691 13.8821 1.62462 14.79 1.87949C16.5425 2.3603 18.1375 3.29411 19.4145 4.58699C20.7066 5.86438 21.6399 7.45928 22.1205 9.21149C22.374 10.107 22.5 11.0355 22.5 12C22.5 12.9645 22.374 13.893 22.1205 14.79C21.8807 15.6699 21.5256 16.5142 21.0645 17.301V17.3025Z"/>
</svg>
