<svg width="24" height="24" viewBox="0 0 24 24" fill="none" xmlns="http://www.w3.org/2000/svg">
<path fill-rule="evenodd" clip-rule="evenodd" d="M11.9999 21.6C17.3019 21.6 21.5999 17.302 21.5999 12C21.5999 6.69806 17.3019 2.39999 11.9999 2.39999C6.69797 2.39999 2.3999 6.69806 2.3999 12C2.3999 17.302 6.69797 21.6 11.9999 21.6ZM13.1999 7.19999C13.1999 6.53726 12.6627 5.99999 11.9999 5.99999C11.3372 5.99999 10.7999 6.53726 10.7999 7.19999V12C10.7999 12.3182 10.9263 12.6235 11.1514 12.8485L14.5455 16.2426C15.0141 16.7113 15.7739 16.7113 16.2425 16.2426C16.7112 15.774 16.7112 15.0142 16.2425 14.5456L13.1999 11.5029V7.19999Z"/>
</svg>
