<svg width="24" height="24" viewBox="0 0 24 24" fill="none" xmlns="http://www.w3.org/2000/svg">
<path d="M12 10.1126C14.3039 10.1126 16.085 7.29 16.085 4.86937C16.085 3.71054 15.6546 2.59917 14.8885 1.77976C14.1224 0.960343 13.0834 0.5 12 0.5C10.9166 0.5 9.87757 0.960343 9.11149 1.77976C8.34541 2.59917 7.91503 3.71054 7.91503 4.86937C7.91503 7.29 9.69608 10.1126 12 10.1126ZM12 2.24775C12.65 2.24775 13.2735 2.52395 13.7331 3.0156C14.1928 3.50725 14.451 4.17407 14.451 4.86937C14.451 6.39865 13.2582 8.36486 12 8.36486C10.7418 8.36486 9.54902 6.39865 9.54902 4.86937C9.54902 4.17407 9.80725 3.50725 10.2669 3.0156C10.7265 2.52395 11.35 2.24775 12 2.24775ZM17.817 13.7042C17.0569 12.8799 16.1513 12.2253 15.1527 11.7785C14.1541 11.3317 13.0824 11.1017 12 11.1017C10.9176 11.1017 9.84591 11.3317 8.84731 11.7785C7.84871 12.2253 6.94307 12.8799 6.18301 13.7042C5.69097 14.151 5.28829 14.6993 4.9991 15.3165C4.70991 15.9336 4.54015 16.6069 4.5 17.2958C4.54123 17.9833 4.7115 18.6549 5.00065 19.2705C5.28981 19.886 5.69192 20.433 6.18301 20.8787C6.94023 21.7084 7.84495 22.3678 8.84393 22.8179C9.84291 23.2681 10.916 23.5 12 23.5C13.084 23.5 14.1571 23.2681 15.1561 22.8179C16.1551 22.3678 17.0598 21.7084 17.817 20.8787C18.3081 20.433 18.7102 19.886 18.9993 19.2705C19.2885 18.6549 19.4588 17.9833 19.5 17.2958C19.4598 16.6069 19.2901 15.9336 19.0009 15.3165C18.7117 14.6993 18.309 14.151 17.817 13.7042ZM16.665 19.6291C16.0566 20.2923 15.3307 20.8191 14.5297 21.1787C13.7287 21.5384 12.8687 21.7236 12 21.7236C11.1313 21.7236 10.2713 21.5384 9.47033 21.1787C8.66934 20.8191 7.9434 20.2923 7.33497 19.6291C6.66245 19.0514 6.23074 18.2127 6.13399 17.2958C6.22867 16.3759 6.66057 15.5337 7.33497 14.9539C7.9434 14.2907 8.66934 13.7639 9.47033 13.4042C10.2713 13.0446 11.1313 12.8594 12 12.8594C12.8687 12.8594 13.7287 13.0446 14.5297 13.4042C15.3307 13.7639 16.0566 14.2907 16.665 14.9539C17.3394 15.5337 17.7713 16.3759 17.866 17.2958C17.7693 18.2127 17.3376 19.0514 16.665 19.6291Z"/>
</svg>
