<svg width="24" height="24" viewBox="0 0 24 24" fill="none" xmlns="http://www.w3.org/2000/svg">
<path fill-rule="evenodd" clip-rule="evenodd" d="M16.5469 0.89912C17.9908 1.49813 19.3011 2.37853 20.4014 3.48901H20.3999C21.508 4.59126 22.387 5.90187 22.9863 7.34533C23.5857 8.78879 23.8934 10.3366 23.8919 11.8995C23.8859 18.4575 18.5489 23.7945 11.9969 23.7945H11.9909C10.0048 23.794 8.05045 23.2964 6.30594 22.347C6.30594 22.347 1.20002 24.72 0.239997 23.76C-0.720029 22.8 1.68144 17.8365 1.68144 17.8365C0.64494 16.029 0.0959402 13.9875 0.0959402 11.889C0.10194 5.33701 5.44044 1.29606e-05 11.9909 1.29606e-05C13.5542 -0.00552744 15.1029 0.300112 16.5469 0.89912ZM6.95694 20.4015C8.4805 21.3054 10.2194 21.7821 11.9909 21.7815C17.4374 21.7815 21.8729 17.352 21.8789 11.8935C21.8821 10.5952 21.6282 9.30907 21.1318 8.10936C20.6355 6.90965 19.9065 5.82009 18.9869 4.90351C18.0706 3.98335 16.9812 3.25367 15.7815 2.75655C14.5818 2.25942 13.2956 2.00468 11.9969 2.00701C6.54594 2.00701 2.11044 6.44401 2.11044 11.883C2.10691 13.743 2.63065 15.566 3.62094 17.1405L3.85494 17.517L2.85594 21.1665L6.59694 20.1855L6.95694 20.4015Z"/>
<path d="M17.4134 14.3805C17.1179 14.232 15.6584 13.5135 15.3839 13.4115C15.1109 13.314 14.9114 13.263 14.7164 13.56C14.5169 13.8555 13.9469 14.529 13.7759 14.7225C13.6049 14.922 13.4279 14.9445 13.1309 14.7975C12.8354 14.6475 11.8769 14.3355 10.7429 13.32C9.85794 12.5325 9.26544 11.5575 9.08844 11.262C8.91744 10.965 9.07194 10.806 9.22044 10.6575C9.35094 10.5255 9.51594 10.3095 9.66444 10.1385C9.81444 9.96751 9.86395 9.84151 9.96144 9.64351C10.0589 9.44251 10.0124 9.27151 9.93894 9.12301C9.86395 8.97451 9.27145 7.50901 9.02095 6.91801C8.78095 6.33451 8.53644 6.41551 8.35344 6.40801C8.18244 6.39751 7.98294 6.39751 7.78344 6.39751C7.63279 6.40126 7.48453 6.4361 7.34798 6.49986C7.21143 6.56362 7.08954 6.65491 6.98994 6.76801C6.71694 7.06501 5.95344 7.78351 5.95344 9.24901C5.95344 10.7069 7.00739 12.1084 7.16603 12.3193L7.16844 12.3225C7.31544 12.522 9.25944 15.5205 12.2429 16.8105C12.9479 17.118 13.5029 17.2995 13.9364 17.4375C14.6489 17.6655 15.2924 17.631 15.8054 17.5575C16.3754 17.4705 17.5619 16.8375 17.8124 16.143C18.0584 15.447 18.0584 14.853 17.9834 14.7285C17.9099 14.6025 17.7104 14.529 17.4134 14.3805Z"/>
</svg>
