<svg viewBox="0 0 24 24" fill="none" xmlns="http://www.w3.org/2000/svg">
<g id="whatsapp-vector">
<path class="-delineado" fill-rule="evenodd" clip-rule="evenodd" d="M17.4885 14.3873C17.1915 14.2387 15.7246 13.5199 15.4487 13.4179C15.1743 13.3203 14.9738 13.2693 14.7778 13.5664C14.5773 13.8621 14.0044 14.5359 13.8325 14.7295C13.6607 14.9291 13.4828 14.9516 13.1843 14.8045C12.8872 14.6544 11.9239 14.3423 10.7841 13.3263C9.8946 12.5384 9.29909 11.563 9.12119 11.2674C8.94932 10.9702 9.1046 10.8111 9.25386 10.6626C9.38502 10.5305 9.55086 10.3144 9.70012 10.1433C9.85088 9.97225 9.90063 9.84619 9.99863 9.64809C10.0966 9.447 10.0499 9.27592 9.97601 9.12735C9.90063 8.97878 9.30512 7.51259 9.05334 6.92132C8.81212 6.33754 8.56638 6.41858 8.38245 6.41108C8.21058 6.40057 8.01006 6.40057 7.80955 6.40057C7.65813 6.40432 7.50911 6.43918 7.37187 6.50297C7.23463 6.56676 7.11211 6.65809 7.01201 6.77125C6.73762 7.06839 5.97023 7.78722 5.97023 9.25341C5.97023 10.712 7.02954 12.1141 7.18899 12.3251L7.19142 12.3284C7.33916 12.5279 9.29306 15.5278 12.2917 16.8185C13.0003 17.1261 13.5581 17.3077 13.9939 17.4457C14.71 17.6739 15.3567 17.6393 15.8724 17.5658C16.4453 17.4788 17.6378 16.8455 17.8896 16.1506C18.1368 15.4543 18.1368 14.86 18.0614 14.7355C17.9876 14.6094 17.787 14.5359 17.4885 14.3873Z M16.6176 0.899603C18.0689 1.49889 19.3858 2.3797 20.4917 3.49071H20.4902C21.6039 4.59347 22.4874 5.9047 23.0898 7.34884C23.6922 8.79297 24.0015 10.3415 24 11.9052C23.994 18.4662 18.6298 23.8057 12.0445 23.8057H12.0385C10.0422 23.8052 8.07791 23.3074 6.32453 22.3575C6.32453 22.3575 1.19263 24.7317 0.227722 23.7712C-0.737189 22.8107 1.6765 17.8449 1.6765 17.8449C0.634725 16.0366 0.0829322 13.9941 0.0829322 11.8946C0.0889627 5.33958 5.45463 7.40305e-05 12.0385 7.40305e-05C13.6097 -0.00546897 15.1663 0.300314 16.6176 0.899603ZM6.97884 20.4111C8.51014 21.3154 10.2579 21.7924 12.0385 21.7918C17.5127 21.7918 21.9707 17.3602 21.9768 11.8991C21.9799 10.6002 21.7247 9.31349 21.2258 8.11322C20.727 6.91295 19.9943 5.82288 19.07 4.90587C18.149 3.98528 17.0541 3.25526 15.8483 2.7579C14.6425 2.26054 13.3497 2.00568 12.0445 2.00801C6.56575 2.00801 2.10768 6.44709 2.10768 11.8886C2.10413 13.7496 2.63054 15.5734 3.62587 17.1486L3.86106 17.5253L2.85697 21.1765L6.61701 20.195L6.97884 20.4111Z"/>
<path class="-lleno" fill-rule="evenodd" clip-rule="evenodd" d="M12.0385 21.7918C10.2579 21.7924 8.51014 21.3154 6.97884 20.4111L6.61701 20.195L2.85697 21.1765L3.86106 17.5253L3.62587 17.1486C2.63054 15.5734 2.10413 13.7496 2.10768 11.8886C2.10768 6.44709 6.56575 2.00801 12.0445 2.00801C13.3497 2.00568 14.6425 2.26054 15.8483 2.7579C17.0541 3.25526 18.149 3.98528 19.07 4.90587C19.9943 5.82288 20.727 6.91295 21.2258 8.11322C21.7247 9.31349 21.9799 10.6002 21.9768 11.8991C21.9707 17.3602 17.5127 21.7918 12.0385 21.7918ZM15.4487 13.4179C15.7246 13.5199 17.1915 14.2387 17.4885 14.3873C17.787 14.5359 17.9876 14.6094 18.0614 14.7355C18.1368 14.86 18.1368 15.4543 17.8896 16.1506C17.6378 16.8455 16.4453 17.4788 15.8724 17.5658C15.3567 17.6393 14.71 17.6739 13.9939 17.4457C13.5581 17.3077 13.0003 17.1261 12.2917 16.8185C9.29306 15.5278 7.33916 12.5279 7.19141 12.3284L7.18899 12.3251C7.02954 12.1141 5.97023 10.712 5.97023 9.25341C5.97023 7.78722 6.73762 7.06839 7.01201 6.77125C7.11211 6.65809 7.23463 6.56676 7.37187 6.50297C7.50911 6.43918 7.65813 6.40432 7.80955 6.40057C8.01006 6.40057 8.21058 6.40057 8.38245 6.41108C8.56638 6.41858 8.81212 6.33754 9.05334 6.92132C9.30512 7.51259 9.90063 8.97878 9.97601 9.12735C10.0499 9.27592 10.0966 9.447 9.99863 9.64809C9.90063 9.84619 9.85088 9.97225 9.70012 10.1433C9.55086 10.3144 9.38502 10.5305 9.25386 10.6626C9.1046 10.8111 8.94932 10.9702 9.12119 11.2674C9.29909 11.563 9.8946 12.5384 10.7841 13.3263C11.9239 14.3423 12.8872 14.6544 13.1843 14.8045C13.4828 14.9516 13.6607 14.9291 13.8325 14.7295C14.0044 14.5359 14.5773 13.8621 14.7778 13.5664C14.9738 13.2693 15.1743 13.3203 15.4487 13.4179Z M16.6176 0.899603C18.0689 1.49889 19.3858 2.3797 20.4917 3.49071H20.4902C21.6039 4.59347 22.4874 5.9047 23.0898 7.34883C23.6922 8.79297 24.0015 10.3415 24 11.9052C23.994 18.4662 18.6298 23.8057 12.0445 23.8057H12.0385C10.0422 23.8052 8.07791 23.3074 6.32453 22.3575C6.32453 22.3575 1.19263 24.7317 0.227722 23.7712C-0.737189 22.8107 1.6765 17.8449 1.6765 17.8449C0.634725 16.0366 0.0829322 13.9941 0.0829322 11.8946C0.0889627 5.33958 5.45463 7.40305e-05 12.0385 7.40305e-05C13.6097 -0.00546897 15.1663 0.300314 16.6176 0.899603ZM6.97884 20.4111C8.51014 21.3154 10.2579 21.7924 12.0385 21.7918C17.5127 21.7918 21.9707 17.3602 21.9768 11.8991C21.9799 10.6002 21.7247 9.31349 21.2258 8.11322C20.727 6.91295 19.9943 5.82288 19.07 4.90587C18.149 3.98528 17.0541 3.25526 15.8483 2.7579C14.6425 2.26054 13.3497 2.00568 12.0445 2.00801C6.56575 2.00801 2.10768 6.44709 2.10768 11.8886C2.10413 13.7496 2.63054 15.5734 3.62587 17.1486L3.86106 17.5253L2.85697 21.1765L6.61701 20.195L6.97884 20.4111Z"/>
</g>
</svg>
